<svg width="80" height="79" viewBox="0 0 80 79" fill="none" xmlns="http://www.w3.org/2000/svg">
<g id="Group">
<path id="Vector" d="M5.91571 39.3806C5.91571 57.8846 21.1619 72.8792 39.9796 72.8792C58.7973 72.8792 74.0466 57.8815 74.0466 39.3806C74.0466 20.8796 58.7942 5.8788 39.9796 5.8788C21.1651 5.8788 5.91571 20.8796 5.91571 39.3806ZM-0.0628891 39.3806C-0.0628891 17.6325 17.8635 0.00195312 39.9765 0.00195312C62.0894 0.00195312 80.019 17.6325 80.019 39.3806C80.019 61.1286 62.0957 78.7591 39.9765 78.7591C17.8572 78.7591 -0.0628891 61.1317 -0.0628891 39.3806Z" fill="white"/>
<path id="Vector_2" d="M3.86322 39.3807C3.86322 19.7686 20.0321 3.86035 39.9765 3.86035C59.9208 3.86035 76.0929 19.7686 76.0929 39.3807C76.0929 58.9929 59.9208 74.898 39.9765 74.898C20.0321 74.898 3.86322 58.999 3.86322 39.3807Z" fill="#783184"/>
<path id="Vector_3" d="M60.2441 11.9995C60.2441 8.43755 63.1753 5.55469 66.7907 5.55469C70.4061 5.55469 73.3342 8.43755 73.3342 11.9995C73.3342 15.5614 70.4061 18.435 66.7907 18.435C63.1753 18.435 60.2441 15.5521 60.2441 11.9995Z" fill="white"/>
<path id="Vector_4" d="M63.2601 11.9995C63.2601 10.0828 64.8387 8.53027 66.7907 8.53027C68.7428 8.53027 70.3151 10.0828 70.3151 11.9995C70.3151 13.9162 68.7397 15.4625 66.7907 15.4625C64.8418 15.4625 63.2601 13.9131 63.2601 11.9995Z" fill="#DA892B"/>
<path id="Vector_5" d="M21.9465 50.5325C22.1788 50.3103 22.4392 50.1313 22.7311 50.0233C23.023 49.9122 23.318 49.8535 23.6224 49.8535C23.9268 49.8535 24.2187 49.9152 24.5106 50.0233C24.8056 50.1344 25.0629 50.3103 25.2983 50.5325L25.6247 50.8566L24.9688 51.5048L24.6298 51.1931C24.4917 51.048 24.3317 50.9461 24.1591 50.8782C23.9833 50.8072 23.8076 50.7764 23.6224 50.7764C23.4372 50.7764 23.2584 50.8072 23.0857 50.8782C22.91 50.9461 22.7531 51.048 22.6087 51.1931C22.4706 51.3165 22.3702 51.4708 22.2949 51.6437C22.2227 51.8165 22.1913 51.9925 22.1913 52.1715C22.1913 52.3505 22.2227 52.5264 22.2949 52.6993C22.3702 52.8721 22.4706 53.0264 22.6087 53.1653C22.888 53.4369 23.227 53.5789 23.6224 53.5789C23.8107 53.5789 23.9927 53.545 24.1653 53.4709C24.3474 53.4061 24.5011 53.298 24.633 53.1653L24.9719 52.8382L25.6278 53.4894L25.3014 53.8166C25.0692 54.045 24.8118 54.2147 24.5137 54.3258C24.2218 54.44 23.9268 54.5018 23.6255 54.5018C23.3243 54.5018 23.0261 54.44 22.7342 54.3258C22.4424 54.2116 22.1819 54.0419 21.9496 53.8166C21.7205 53.5882 21.5479 53.3351 21.4381 53.048C21.3251 52.7641 21.2686 52.4801 21.2686 52.1746C21.2686 51.869 21.3251 51.585 21.4381 51.3011C21.5479 51.0171 21.7205 50.7609 21.9496 50.5325" fill="white"/>
<path id="Vector_6" d="M27.3414 51.1993C27.0589 51.4709 26.9208 51.8042 26.9208 52.19C26.9208 52.403 26.9679 52.6036 27.0652 52.8012C27.1499 52.7209 27.2755 52.5913 27.4481 52.4246C27.6238 52.2548 27.8027 52.0697 27.9973 51.8814C28.195 51.6962 28.377 51.511 28.5559 51.3412C28.7348 51.1653 28.8729 51.0264 28.9702 50.9338C28.7034 50.8011 28.421 50.7579 28.126 50.8011C27.8247 50.8443 27.5673 50.9709 27.3414 51.1962V51.1993ZM29.6857 52.8598L30.3511 53.511L30.0247 53.8351C29.7987 54.0543 29.5445 54.224 29.2558 54.3351C28.9702 54.4586 28.6658 54.5234 28.3551 54.5234C28.0444 54.5234 27.7368 54.4586 27.4481 54.3351C27.1625 54.224 26.9051 54.0543 26.6823 53.8351C26.4501 53.6067 26.2775 53.3536 26.1676 53.0635C26.0546 52.7765 25.9982 52.4863 25.9982 52.19C25.9982 51.8937 26.0515 51.6005 26.1676 51.3258C26.2806 51.0326 26.4501 50.7857 26.6823 50.5542C26.9114 50.3289 27.1719 50.156 27.4669 50.0449C27.7588 49.9338 28.0538 49.8721 28.3582 49.8721C28.6626 49.8721 28.9545 49.9369 29.2432 50.0449C29.5382 50.1591 29.7987 50.3289 30.031 50.5542L30.3574 50.8783L27.7431 53.4524C28.0036 53.5789 28.2829 53.6252 28.5842 53.579C28.8792 53.5357 29.1459 53.4061 29.3719 53.1808L29.6952 52.8629L29.6857 52.8598Z" fill="white"/>
<path id="Vector_7" d="M30.8532 51.273C30.9725 50.9921 31.1388 50.7514 31.3554 50.5384C31.5656 50.3347 31.823 50.1619 32.1054 50.0415C32.3942 49.918 32.6986 49.8594 33.0187 49.8594C33.3388 49.8594 33.6558 49.918 33.9351 50.0415C34.2238 50.1619 34.4718 50.3347 34.6946 50.5384C34.9049 50.7514 35.0775 50.9921 35.203 51.273C35.3223 51.5508 35.385 51.8533 35.385 52.1742V54.5076H34.4498V52.1742C34.4498 51.9891 34.4121 51.8039 34.34 51.6341C34.2678 51.4674 34.1673 51.3193 34.0355 51.1927C33.9069 51.0631 33.7531 50.9613 33.5805 50.8903C33.4079 50.8162 33.2164 50.7822 33.0187 50.7822C32.821 50.7822 32.639 50.8162 32.4663 50.8903C32.2937 50.9613 32.1462 51.06 32.0144 51.1927C31.8857 51.3193 31.7853 51.4674 31.7069 51.6341C31.6315 51.8039 31.597 51.9891 31.597 52.1742V54.5076H30.6618V52.1742C30.6618 51.8533 30.7183 51.5508 30.8438 51.273" fill="white"/>
<path id="Vector_8" d="M36.4019 50.5325C36.6341 50.3103 36.8914 50.1313 37.1833 50.0233C37.4783 49.9122 37.7765 49.8535 38.0746 49.8535C38.3728 49.8535 38.674 49.9152 38.9628 50.0233C39.2515 50.1344 39.5151 50.3103 39.7505 50.5325L40.0738 50.8566L39.4178 51.5048L39.0852 51.1931C38.9471 51.048 38.787 50.9461 38.6081 50.8782C38.4324 50.8072 38.2504 50.7764 38.0715 50.7764C37.8926 50.7764 37.7137 50.8072 37.5379 50.8782C37.3622 50.9461 37.2021 51.048 37.0578 51.1931C36.9228 51.3165 36.813 51.4708 36.7471 51.6437C36.6749 51.8165 36.6435 51.9925 36.6435 52.1715C36.6435 52.3505 36.6749 52.5264 36.7471 52.6993C36.813 52.8721 36.9197 53.0264 37.0578 53.1653C37.3402 53.4369 37.6792 53.5789 38.0715 53.5789C38.2598 53.5789 38.4449 53.545 38.6238 53.4709C38.7996 53.4061 38.9534 53.298 39.0852 53.1653L39.4178 52.8382L40.0738 53.4894L39.7505 53.8166C39.5151 54.045 39.2484 54.2147 38.9628 54.3258C38.6709 54.44 38.3759 54.5018 38.0746 54.5018C37.7733 54.5018 37.4783 54.44 37.1833 54.3258C36.8914 54.2116 36.6341 54.0419 36.4019 53.8166C36.1696 53.5882 36.0033 53.3351 35.884 53.048C35.7742 52.7641 35.7177 52.4801 35.7177 52.1746C35.7177 51.869 35.7742 51.585 35.884 51.3011C36.0033 51.0171 36.1696 50.7609 36.4019 50.5325Z" fill="white"/>
<path id="Vector_9" d="M41.3636 52.19C41.3636 52.3845 41.4013 52.5666 41.4735 52.7363C41.5457 52.9092 41.6524 53.0604 41.7779 53.1839C41.9097 53.3166 42.0603 53.4123 42.233 53.4833C42.415 53.5543 42.597 53.5944 42.7916 53.5944C42.9862 53.5944 43.1776 53.5543 43.3471 53.4833C43.526 53.4123 43.6797 53.3166 43.8084 53.1839C43.9371 53.0573 44.0375 52.9092 44.116 52.7363C44.185 52.5635 44.2258 52.3845 44.2258 52.19C44.2258 51.9956 44.1882 51.8197 44.116 51.6468C44.0407 51.477 43.9402 51.332 43.8084 51.2085C43.6766 51.0727 43.526 50.977 43.3471 50.906C43.1776 50.8351 42.9893 50.7888 42.7916 50.7888C42.5939 50.7888 42.4118 50.8351 42.233 50.906C42.0603 50.9739 41.9097 51.0727 41.7779 51.2085C41.6524 51.332 41.5488 51.477 41.4735 51.6468C41.4013 51.8197 41.3636 51.9956 41.3636 52.19ZM40.4378 52.19C40.4378 51.869 40.4974 51.5635 40.6167 51.2857C40.7391 51.0048 40.9148 50.7641 41.122 50.5511C41.3385 50.3412 41.5896 50.1745 41.8752 50.0603C42.167 49.9369 42.4715 49.8721 42.7884 49.8721C43.1054 49.8721 43.4255 49.9369 43.7111 50.0603C43.9967 50.1745 44.2509 50.3412 44.4643 50.5511C44.684 50.7641 44.8504 51.0079 44.9696 51.2857C45.0952 51.5666 45.1611 51.869 45.1611 52.19C45.1611 52.511 45.0952 52.8073 44.9696 53.0882C44.8504 53.3752 44.6809 53.6222 44.4643 53.8382C44.2509 54.0512 43.9967 54.2148 43.7111 54.3382C43.4287 54.4586 43.1211 54.5173 42.7884 54.5173C42.4558 54.5173 42.1639 54.4586 41.8752 54.3382C41.5896 54.2148 41.3385 54.0512 41.122 53.8382C40.9148 53.6222 40.7391 53.3752 40.6167 53.0882C40.4974 52.8104 40.4378 52.511 40.4378 52.19Z" fill="white"/>
<path id="Vector_10" d="M49.7337 49.8501V50.773H46.8809C46.7428 50.773 46.633 50.8162 46.5388 50.9088C46.4478 50.9983 46.407 51.1063 46.407 51.2421C46.407 51.3779 46.4509 51.4798 46.5388 51.5754C46.633 51.668 46.7459 51.7174 46.8809 51.7174H48.7702C48.9679 51.7174 49.1499 51.7483 49.3257 51.8316C49.492 51.8964 49.6458 51.9952 49.7745 52.1218C49.9031 52.239 50.0067 52.3903 50.082 52.5508C50.1573 52.7298 50.1919 52.9119 50.1919 53.1033C50.1919 53.2946 50.1573 53.4706 50.082 53.6465C50.0098 53.8132 49.9031 53.9613 49.7745 54.0879C49.6458 54.2144 49.492 54.3193 49.3257 54.3903C49.1499 54.4644 48.9679 54.5045 48.7702 54.5045H45.9331V53.5786H48.7702C48.9146 53.5786 49.0275 53.5354 49.1185 53.4428C49.2096 53.3564 49.2535 53.2391 49.2535 53.1064C49.2535 52.9736 49.2096 52.8625 49.1185 52.7699C49.0275 52.6804 48.9146 52.6372 48.7702 52.6372H46.8809C46.68 52.6372 46.4949 52.6002 46.3254 52.5292C46.1528 52.4582 46.0084 52.3532 45.8797 52.2236C45.7479 52.1002 45.6506 51.952 45.5785 51.7822C45.5 51.6125 45.4623 51.4304 45.4623 51.2421C45.4623 51.0538 45.5 50.8686 45.5785 50.6927C45.6506 50.523 45.7448 50.381 45.8797 50.2544C46.0084 50.1341 46.1528 50.0353 46.3254 49.9643C46.4917 49.8902 46.68 49.8532 46.8809 49.8532H49.7337V49.8501Z" fill="white"/>
<path id="Vector_11" d="M55.2195 49.8501V52.1681C55.2195 52.4829 55.1631 52.7823 55.0375 53.0601C54.912 53.3502 54.7425 53.5971 54.5228 53.8101C54.3094 54.02 54.0583 54.1866 53.7728 54.3101C53.4872 54.4274 53.1859 54.4953 52.8501 54.4953C52.53 54.4953 52.2224 54.4274 51.9368 54.3101C51.6449 54.1866 51.397 54.02 51.1867 53.8101C50.967 53.5971 50.8039 53.3502 50.6815 53.0601C50.5591 52.7792 50.4994 52.4829 50.4994 52.1681V49.8501H51.4378V52.1681C51.4378 52.3594 51.4723 52.5446 51.5414 52.7175C51.6167 52.8872 51.7171 53.0354 51.8521 53.165C51.9807 53.2946 52.1314 53.3965 52.304 53.4613C52.4766 53.5354 52.6586 53.5724 52.8532 53.5724C53.0478 53.5724 53.2392 53.5385 53.4118 53.4613C53.5844 53.3934 53.7382 53.2946 53.87 53.165C54.0019 53.0385 54.1023 52.8872 54.1745 52.7175C54.2466 52.5446 54.2843 52.3594 54.2843 52.1681V49.8501H55.2195Z" fill="white"/>
<path id="Vector_12" d="M57.8715 53.5726C58.0692 53.5726 58.2512 53.5386 58.4238 53.4615C58.5964 53.3936 58.7439 53.2948 58.8789 53.1652C59.0044 53.0386 59.108 52.8874 59.1802 52.7176C59.2524 52.5448 59.2931 52.3596 59.2931 52.1682V50.7731H57.8715C57.6769 50.7731 57.4886 50.8102 57.3128 50.8811C57.1371 50.9521 56.9833 51.054 56.8546 51.1805C56.7228 51.3071 56.6224 51.4522 56.5471 51.6281C56.4749 51.7978 56.4372 51.9769 56.4372 52.1713C56.4372 52.3658 56.478 52.5479 56.5471 52.7207C56.6224 52.8905 56.7228 53.0386 56.8546 53.1682C56.9833 53.2979 57.1371 53.3997 57.3128 53.4645C57.4886 53.5386 57.6769 53.5757 57.8715 53.5757V53.5726ZM60.2252 47.9922V52.1713C60.2252 52.4861 60.1625 52.7855 60.0464 53.0633C59.9146 53.3534 59.7545 53.6003 59.538 53.8133C59.3245 54.0232 59.0735 54.1899 58.7879 54.3133C58.4991 54.4306 58.1916 54.4985 57.8715 54.4985C57.5514 54.4985 57.2407 54.4306 56.9519 54.3133C56.6663 54.1899 56.409 54.0232 56.1956 53.8133C55.979 53.6003 55.8096 53.3534 55.6903 53.0633C55.5648 52.7824 55.502 52.4861 55.502 52.1713C55.502 51.8565 55.5648 51.5417 55.6903 51.267C55.8127 50.983 55.9822 50.7453 56.1956 50.5293C56.4121 50.3163 56.6695 50.1527 56.9519 50.0324C57.2407 49.912 57.5451 49.8503 57.8715 49.8503H59.2931V47.9922H60.2252Z" fill="white"/>
<path id="Vector_13" d="M62.4535 33.377C62.987 32.2535 64.1827 31.4757 65.4412 31.4263H72.3645V34.377C70.1174 34.377 67.8734 34.3709 65.6295 34.377C65.3659 34.377 65.1117 34.6024 65.1117 34.8678C65.0677 35.161 65.3188 35.482 65.6295 35.4759H69.1037C69.5274 35.482 69.9573 35.4573 70.3716 35.5222C71.4135 35.6858 72.377 36.3278 72.9043 37.226C73.3782 38.0285 73.4943 39.0162 73.2495 39.9113C72.9451 41.0626 72.0004 42.0132 70.8361 42.3589C70.403 42.4948 69.9385 42.5194 69.4897 42.5133H63.1063C63.1063 41.5256 63.1063 40.5348 63.1063 39.544C65.3565 39.544 67.6161 39.5502 69.8632 39.544C70.2053 39.5316 70.4344 39.1674 70.3496 38.8557C70.2931 38.6149 70.0546 38.4266 69.7973 38.4421H66.5177C65.9151 38.4359 65.3063 38.4853 64.7162 38.3217C63.7873 38.084 62.9807 37.4451 62.5288 36.6148C61.9702 35.6302 61.9451 34.3832 62.4503 33.377" fill="white"/>
<path id="Vector_14" d="M10.2153 32.34C11.2196 31.7011 12.431 31.3924 13.6236 31.4758C15.0609 31.5437 16.4449 32.2135 17.4241 33.2444C18.2464 34.1086 18.783 35.2414 18.8897 36.4236C18.9933 37.473 18.8113 38.5564 18.3154 39.4916C17.5905 40.9238 16.2064 42.0164 14.6247 42.3992C14.088 42.5288 13.5357 42.5535 12.9865 42.5597C12.205 42.5597 11.4267 42.5597 10.6484 42.5597V46.6185C9.6441 46.6185 8.63668 46.6185 7.6324 46.6154V37.5471C7.6324 36.9853 7.6324 36.4266 7.74852 35.8772C8.03725 34.4327 8.95993 33.1302 10.2153 32.34ZM11.3765 35.2198C10.9183 35.6859 10.6421 36.3371 10.6452 36.9884C10.6452 37.8588 10.6452 38.7231 10.6452 39.5935H13.3003C13.9907 39.5935 14.6749 39.3126 15.1551 38.8218C15.7043 38.2817 15.9742 37.4977 15.8957 36.7446C15.8392 36.1612 15.5662 35.5933 15.1363 35.1797C14.6435 34.6858 13.9405 34.4142 13.2375 34.4265C12.544 34.4265 11.8535 34.7228 11.3765 35.2229" fill="white"/>
<path id="Vector_15" d="M19.3574 31.9512H22.3576V37.1335C22.3576 37.3681 22.3514 37.6027 22.3828 37.8373C22.4926 38.6583 23.0261 39.4176 23.7793 39.7911C24.5325 40.1862 25.4897 40.1646 26.2367 39.7664C27.0526 39.3497 27.5924 38.4793 27.6144 37.578C27.6144 35.7014 27.6144 33.8278 27.6144 31.9512H30.6273C30.6273 33.8031 30.6335 35.6612 30.6273 37.5163C30.621 38.5719 30.304 39.6213 29.714 40.501C29.0141 41.572 27.9314 42.3838 26.7043 42.7758C25.3799 43.1832 23.8986 43.1122 22.637 42.5412C20.7351 41.7017 19.4076 39.7479 19.3511 37.6984V31.9512H19.3574Z" fill="white"/>
<path id="Vector_16" d="M34.0198 32.1056C35.2187 31.4481 36.6655 31.2784 37.9962 31.5778C40.0424 32.0407 41.7653 33.7044 42.211 35.7323C42.3867 36.4731 42.3428 37.2262 42.3491 37.9762V42.5259H39.3457C39.3457 40.6739 39.3519 38.8281 39.3457 36.9824C39.3457 36.3373 39.0914 35.6983 38.6458 35.2261C38.1186 34.6582 37.3214 34.3464 36.5462 34.402C35.884 34.4267 35.2501 34.7322 34.7982 35.2045C34.34 35.6737 34.0795 36.3249 34.0763 36.9731C34.0732 38.822 34.0763 40.6739 34.0732 42.5228H31.0792C31.0792 40.6708 31.0792 38.8281 31.0792 36.9793C31.0352 34.9823 32.2278 33.0285 34.0261 32.0994" fill="white"/>
<path id="Vector_17" d="M55.2541 32.0346C56.3054 31.905 57.3944 32.0377 58.3548 32.4822C59.4501 32.976 60.3822 33.8156 60.9659 34.8558C61.5151 35.8064 61.7317 36.933 61.6312 38.0164C61.5371 39.2048 61.0193 40.353 60.2064 41.2357C59.3591 42.171 58.1853 42.8191 56.9237 43.0105C55.8441 43.171 54.7111 43.0537 53.7131 42.6031C51.7171 41.7481 50.3362 39.6554 50.3833 37.5133C50.3582 36.433 50.7003 35.362 51.306 34.4638C52.1847 33.1458 53.666 32.2291 55.2572 32.0315L55.2541 32.0346ZM55.4361 35.0039C54.6672 35.1613 53.9799 35.6768 53.6378 36.3805C53.3742 36.8806 53.3146 37.4608 53.415 38.0072C53.5562 38.7695 54.0678 39.4702 54.777 39.8159C55.4361 40.1585 56.2427 40.2048 56.9425 39.9517C57.589 39.7171 58.1382 39.2202 58.4144 38.5998C58.6372 38.1245 58.7 37.5812 58.6153 37.0688C58.4772 36.2632 57.9154 35.5472 57.1685 35.1984C56.6349 34.9484 56.0167 34.8774 55.4392 35.0039" fill="white"/>
<path id="Vector_18" d="M42.7916 27.3555H45.8044V31.439H49.9408V34.2231H45.8044C45.8044 34.7139 45.7228 37.248 45.9708 37.8653C46.3191 38.8283 47.2983 39.5228 48.334 39.5444H49.9408V42.5137C49.3163 42.5044 48.698 42.5291 48.0735 42.4951C46.9091 42.4334 45.7793 41.9859 44.8755 41.2574C43.8524 40.4395 43.1305 39.2604 42.892 37.9826C42.7947 37.4918 42.7853 36.9887 42.7916 36.4917V27.3586V27.3555Z" fill="white"/>
</g>
</svg>
